<?xml version="1.0" encoding="utf-8"?>
<!-- Generator: Adobe Illustrator 24.0.2, SVG Export Plug-In . SVG Version: 6.00 Build 0)  -->
<svg version="1.1" id="Capa_1" focusable="false" xmlns="http://www.w3.org/2000/svg" xmlns:xlink="http://www.w3.org/1999/xlink"
	 x="0px" y="0px" viewBox="0 0 1944.3 512" style="enable-background:new 0 0 1944.3 512;" xml:space="preserve">
<style type="text/css">
	.st0{font-family:'SegoeUI';}
	.st1{font-size:264.1624px;}
	.st2{letter-spacing:10;}
</style>
<path d="M512,176c0,97.2-78.8,176-176,176c-11.2,0-22.2-1.1-32.8-3.1l-24,27c-4.6,5.1-11.1,8.1-17.9,8.1H224v40
	c0,13.3-10.7,24-24,24h-40v40c0,13.3-10.7,24-24,24H24c-13.3,0-24-10.7-24-24v-78.1c0-6.4,2.5-12.5,7-17l161.8-161.8
	c-5.7-17.4-8.8-35.9-8.8-55.2C160,78.8,238.8,0,336,0C433.5,0,512,78.5,512,176z M336,128c0,26.5,21.5,48,48,48s48-21.5,48-48
	s-21.5-48-48-48S336,101.5,336,128z"/>
<text transform="matrix(1 0 0 1 504.999 239.2998)"><tspan x="0" y="0" class="st0 st1 st2">SAFE</tspan><tspan x="0" y="218" class="st0 st1 st2">PASSWORD</tspan></text>
</svg>
